<svg width="144" height="144" viewBox="0 0 144 144" fill="none" xmlns="http://www.w3.org/2000/svg">
  <rect x="3" y="3" width="138" height="138" rx="19" fill="#171923" stroke="#7DF9FF" stroke-width="6"/>
  <g fill="#7DF9FF">
    <rect x="66" y="24" width="12" height="28" rx="4"/>
    <rect x="66" y="92" width="12" height="28" rx="4"/>
    <rect x="92" y="66" width="28" height="12" rx="4"/>
    <rect x="24" y="66" width="28" height="12" rx="4"/>
    <rect x="66" y="24" width="12" height="28" rx="4" transform="rotate(45 72 72)"/>
    <rect x="66" y="92" width="12" height="28" rx="4" transform="rotate(45 72 72)"/>
    <rect x="92" y="66" width="28" height="12" rx="4" transform="rotate(45 72 72)"/>
    <rect x="24" y="66" width="28" height="12" rx="4" transform="rotate(45 72 72)"/>
    <circle cx="72" cy="72" r="34"/>
  </g>
  <circle cx="72" cy="72" r="14" fill="#171923" stroke="#D9DAD8" stroke-width="5"/>
</svg>
